<svg xmlns="http://www.w3.org/2000/svg" width="60.968" height="49.016" viewBox="0 0 60.968 49.016">
  <path id="Path_16" data-name="Path 16" d="M39.642,52.626a80.432,80.432,0,0,1-9.941,6.85,1.425,1.425,0,0,1-1.389,0v0c-.066-.036-22.948-12.79-26.762-29.87C.456,24.7,1.2,20.537,3.1,17.363a13.562,13.562,0,0,1,5.962-5.337,15.436,15.436,0,0,1,8.081-1.3,19.486,19.486,0,0,1,11.866,6,19.5,19.5,0,0,1,11.868-6,15.389,15.389,0,0,1,8.081,1.3,13.557,13.557,0,0,1,5.959,5.337,16.374,16.374,0,0,1,1.574,12.13,14.507,14.507,0,0,1,1.328,1.175,14.317,14.317,0,0,1-18.18,21.958Zm1.036-10.408a1.43,1.43,0,0,1,0-2.861h5.59v-5.59a1.43,1.43,0,0,1,2.861,0v5.59h5.59a1.43,1.43,0,1,1,0,2.861h-5.59v5.59a1.43,1.43,0,1,1-2.861,0v-5.59ZM53.9,27.883a13.182,13.182,0,0,0-1.43-9.058,10.7,10.7,0,0,0-4.709-4.208,12.6,12.6,0,0,0-6.606-1.053A17.058,17.058,0,0,0,30.1,19.751a1.364,1.364,0,0,1-.156.158,1.423,1.423,0,0,1-2.009-.146,17.058,17.058,0,0,0-11.07-6.2,12.622,12.622,0,0,0-6.606,1.053,10.691,10.691,0,0,0-4.709,4.208C4,21.4,3.409,24.857,4.334,28.987c3.16,14.152,20.933,25.365,24.679,27.591a81.066,81.066,0,0,0,8.409-5.826A14.319,14.319,0,0,1,53.9,27.88Zm1.9,4.8a11.463,11.463,0,1,0,3.354,8.1A11.423,11.423,0,0,0,55.8,32.687Z" transform="translate(-1.041 -10.639)" fill="#022a72"/>
</svg>
