<svg xmlns="http://www.w3.org/2000/svg" width="58.129" height="57.048" viewBox="0 0 58.129 57.048">
  <path id="Path_14" data-name="Path 14" d="M61.983,33.078H54.232V27.77l1.727-1a3.922,3.922,0,1,0-.812-1.405L53.015,26.6a.811.811,0,0,0-.4.7v5.775H46.691a.813.813,0,0,0-.812.812,11.772,11.772,0,0,1-4.925,9.562.813.813,0,0,0,.945,1.323A13.414,13.414,0,0,0,47.481,34.7H61.164a27.671,27.671,0,0,1-.274,3.13.678.678,0,0,1-.593.586l-4.465.6a.81.81,0,0,0-.676.593,21.756,21.756,0,0,1-2.112,5.1.812.812,0,0,0,.06.9l2.733,3.583a.679.679,0,0,1,.005.832A27.2,27.2,0,0,1,50.264,55.6a.679.679,0,0,1-.832-.005l-3.583-2.733a.816.816,0,0,0-.9-.06,21.645,21.645,0,0,1-5.1,2.112.818.818,0,0,0-.593.676l-.6,4.465a.675.675,0,0,1-.586.591,27.256,27.256,0,0,1-7.885,0,.678.678,0,0,1-.586-.591l-.6-4.465a.81.81,0,0,0-.593-.676A21.675,21.675,0,0,1,23.321,52.8a.812.812,0,0,0-.9.06l-3.583,2.736a.676.676,0,0,1-.832.005,27.2,27.2,0,0,1-5.577-5.577.679.679,0,0,1,.005-.832l2.733-3.583a.816.816,0,0,0,.06-.9,21.674,21.674,0,0,1-2.115-5.1.818.818,0,0,0-.676-.593l-4.465-.6a.68.68,0,0,1-.593-.586,27.672,27.672,0,0,1-.274-3.13H20.789a13.4,13.4,0,0,0,5.582,10.072.813.813,0,0,0,.945-1.323,11.774,11.774,0,0,1-4.925-9.562.813.813,0,0,0-.812-.812h-5.63V27.3a.819.819,0,0,0-.4-.7L13.41,25.369a3.947,3.947,0,1,0-.817,1.408l1.727,1v5.308l-8.038-.005a.813.813,0,0,0-.812.812,28.666,28.666,0,0,0,.3,4.179A2.3,2.3,0,0,0,7.758,40.03l3.937.528a23.2,23.2,0,0,0,1.861,4.483L11.145,48.2a2.3,2.3,0,0,0-.018,2.788A28.8,28.8,0,0,0,17.036,56.9a2.3,2.3,0,0,0,2.788-.018l3.161-2.411a23.332,23.332,0,0,0,4.483,1.861L28,60.267a2.3,2.3,0,0,0,1.961,1.984,28.834,28.834,0,0,0,8.355,0,2.294,2.294,0,0,0,1.959-1.984l.528-3.94a23.32,23.32,0,0,0,4.483-1.858l3.161,2.411a2.3,2.3,0,0,0,2.788.018,28.8,28.8,0,0,0,5.909-5.909,2.3,2.3,0,0,0-.018-2.788l-2.411-3.161a23.493,23.493,0,0,0,1.861-4.483l3.937-.528a2.3,2.3,0,0,0,1.984-1.961,29.022,29.022,0,0,0,.3-4.179.813.813,0,0,0-.812-.812Zm-3.11-11.222a2.3,2.3,0,1,1-2.3,2.3A2.3,2.3,0,0,1,58.873,21.856Zm-48.6,4.513A2.3,2.3,0,1,1,11.9,23.558a2.3,2.3,0,0,1-1.624,2.811Zm13.595-2.286a3.92,3.92,0,1,0,2.914,6.54L33.32,34.4v6.427a5.68,5.68,0,1,0,1.624,0V34.4l6.537-3.774q.068.075.143.151a3.9,3.9,0,1,0-.955-1.556l-5.723,3.3v-6.61a3.917,3.917,0,0,0,2.914-5.049l3.621-2.089q.068.075.143.151a3.921,3.921,0,1,0-.141-5.391l-3.623-2.092a3.876,3.876,0,0,0,.194-1.214,3.918,3.918,0,1,0-1,2.622l3.623,2.092a3.876,3.876,0,0,0-.194,1.214,3.921,3.921,0,0,0,.191,1.214l-3.621,2.092a3.916,3.916,0,0,0-5.828,0L27.6,17.37a3.876,3.876,0,0,0,.194-1.214,3.923,3.923,0,1,0-1.006,2.62l3.623,2.092a3.876,3.876,0,0,0-.194,1.214,3.93,3.93,0,0,0,3.108,3.837v6.61l-5.725-3.3a3.876,3.876,0,0,0,.194-1.214,3.925,3.925,0,0,0-3.92-3.92Zm0,6.215a2.3,2.3,0,1,1,2.3-2.3A2.3,2.3,0,0,1,23.869,30.3ZM44.4,25.708A2.3,2.3,0,1,1,42.1,28,2.3,2.3,0,0,1,44.4,25.708Zm0-11.852a2.3,2.3,0,1,1-2.3,2.3,2.3,2.3,0,0,1,2.3-2.3ZM34.133,12.52a2.3,2.3,0,1,1,2.3-2.3A2.288,2.288,0,0,1,34.133,12.52ZM23.87,18.447a2.3,2.3,0,1,1,2.3-2.3A2.3,2.3,0,0,1,23.87,18.447Zm7.968,3.631a2.3,2.3,0,1,1,2.3,2.3A2.3,2.3,0,0,1,31.838,22.077Zm2.3,20.311a4.057,4.057,0,1,1-4.056,4.056,4.061,4.061,0,0,1,4.056-4.056Z" transform="translate(-5.07 -5.907)" fill="#022a72" stroke="#022a72" stroke-width="0.8"/>
</svg>
