<svg xmlns="http://www.w3.org/2000/svg" width="55.453" height="53.695" viewBox="0 0 55.453 53.695">
  <path id="Path_15" data-name="Path 15" d="M55.944,18.317A17.749,17.749,0,0,0,49.988,5.876a17.965,17.965,0,0,0-21.616-1.8h0a18.013,18.013,0,0,0-22.193,28.2l.48.432A4.419,4.419,0,0,0,7.4,38.42l.6.528a4.347,4.347,0,0,0,2.954,1.129h.552v.168a4.8,4.8,0,0,0,4.8,4.587h.6a4.742,4.742,0,0,0,4.78,4.78,4.8,4.8,0,0,0,.841,0v.624a5.045,5.045,0,0,0,4.9,4.611H27.7a4.8,4.8,0,0,0,3.266-1.561l3.1-3.435A4.8,4.8,0,0,0,35.049,48a4.515,4.515,0,0,0,1.489.264,4.8,4.8,0,0,0,4.8-5.356h0a4.933,4.933,0,0,0,4.635-6.1l5.4-5.428A17.821,17.821,0,0,0,55.944,18.317ZM9.59,37.171l-.576-.528a2.042,2.042,0,0,1-.144-2.882l2.21-2.4a2.017,2.017,0,0,1,1.513-.673,1.945,1.945,0,0,1,1.345.528l.6.528a2.018,2.018,0,0,1,.168,2.858l-.648.721L12.5,37.051a2.042,2.042,0,0,1-2.906.12Zm6.869,5.212a2.45,2.45,0,0,1-1.945-4.059l1.945-2.162h0l2.21-2.4a2.4,2.4,0,0,1,1.681-.817h.12A2.418,2.418,0,0,1,22.271,37L18.14,41.615A2.4,2.4,0,0,1,16.459,42.383ZM20.11,46.61a2.4,2.4,0,0,1-.168-3.435l4.131-4.611a2.4,2.4,0,0,1,1.8-.817,2.522,2.522,0,0,1,1.633.624,2.47,2.47,0,0,1,.192,3.435l-4.155,4.611a2.4,2.4,0,0,1-3.435.192Zm12.153,1.537-3.074,3.435a2.457,2.457,0,0,1-3.627-3.314l3.074-3.435a2.258,2.258,0,0,1,1.705-.769,2.714,2.714,0,0,1,1.753.7,2.38,2.38,0,0,1,.168,3.387Zm10.88-8.526a2.4,2.4,0,0,1-3.387.192L26.33,27.8a1.153,1.153,0,0,0-1.681,0,1.177,1.177,0,0,0,0,1.681L38.075,41.495a2.4,2.4,0,0,1,.192,3.387,2.738,2.738,0,0,1-3.218.528,4.8,4.8,0,0,0-4.563-3.675,4.611,4.611,0,0,0,.24-1.825A4.785,4.785,0,0,0,25.3,35.418v-.36a4.8,4.8,0,0,0-1.609-3.314,4.611,4.611,0,0,0-3.483-1.225A4.8,4.8,0,0,0,17.3,31.7a4.443,4.443,0,0,0-1.225-1.8l-.6-.528a4.467,4.467,0,0,0-6.221.24L8.221,30.783,7.765,30.4A15.612,15.612,0,0,1,26.595,5.732L13.025,20.143a3.146,3.146,0,0,0-.793,2.258,3.194,3.194,0,0,0,1.033,2.186,5.908,5.908,0,0,0,3.963,1.681A9.607,9.607,0,0,0,24,22.4l5.86-6.557,9.847,7.926,6.269,5.62a2.4,2.4,0,0,1-3.194,3.579L31.158,22.4a1.225,1.225,0,0,0-1.705,0,1.2,1.2,0,0,0,0,1.705L41.077,34.529h0l1.777,1.609a2.4,2.4,0,0,1,.288,3.483Zm5.932-9.391a4.8,4.8,0,0,0-1.489-2.762L41.27,21.824,30.63,13.25h0a1.225,1.225,0,0,0-1.705.144l-6.7,7.277c-3.747,4.131-5.788,3.507-7.349,2.09a.673.673,0,0,1-.24-.5.624.624,0,0,1,.168-.5L29.357,6.308A15.588,15.588,0,0,1,49.7,29.606Z" transform="translate(-0.526 -1.154)" fill="#022a72"/>
</svg>
